<?xml version="1.0" encoding="UTF-8" standalone="no"?>
<!DOCTYPE svg PUBLIC "-//W3C//DTD SVG 1.1//EN" "http://www.w3.org/Graphics/SVG/1.1/DTD/svg11.dtd">
<svg width="100%" height="100%" viewBox="0 0 350 80" version="1.1" xmlns="http://www.w3.org/2000/svg" xmlns:xlink="http://www.w3.org/1999/xlink" xml:space="preserve" xmlns:serif="http://www.serif.com/" style="fill-rule:evenodd;clip-rule:evenodd;stroke-linejoin:round;stroke-miterlimit:2;">
	<rect class="TripBuddiLogo" x="0" y="0" width="350" height="80" style="fill:none;" />
	<g class="TripBuddiText" transform="matrix(1,0,0,1,-29.6321,-63.94)">
		<g transform="matrix(64,0,0,64,31.2561,141.42)">
			<path d="M0.579,-0.678L0.386,-0.678L0.386,-0.052C0.386,-0.037 0.381,-0.025 0.371,-0.015C0.361,-0.005 0.348,0 0.334,0C0.32,0 0.307,-0.005 0.297,-0.015C0.287,-0.025 0.282,-0.037 0.282,-0.052L0.282,-0.678L0.089,-0.678C0.075,-0.678 0.063,-0.683 0.053,-0.693C0.043,-0.703 0.038,-0.715 0.038,-0.729C0.038,-0.744 0.043,-0.756 0.053,-0.766C0.063,-0.776 0.075,-0.781 0.089,-0.781L0.579,-0.781C0.593,-0.781 0.605,-0.776 0.615,-0.766C0.625,-0.756 0.63,-0.744 0.63,-0.729C0.63,-0.715 0.625,-0.703 0.615,-0.693C0.605,-0.683 0.593,-0.678 0.579,-0.678Z" style="fill-rule:nonzero;" />
		</g>
		<g transform="matrix(64,0,0,64,76.9561,141.42)">
			<path d="M0.14,-0.678L0.14,-0.405L0.277,-0.405C0.296,-0.405 0.313,-0.408 0.33,-0.416C0.347,-0.423 0.361,-0.433 0.373,-0.445C0.385,-0.458 0.395,-0.472 0.402,-0.489C0.41,-0.505 0.413,-0.522 0.413,-0.541C0.413,-0.56 0.41,-0.578 0.402,-0.594C0.395,-0.611 0.385,-0.625 0.373,-0.638C0.361,-0.65 0.346,-0.66 0.33,-0.667C0.313,-0.674 0.295,-0.678 0.277,-0.678L0.14,-0.678ZM0.037,-0.052L0.037,-0.729C0.037,-0.737 0.038,-0.743 0.041,-0.75C0.043,-0.756 0.047,-0.762 0.052,-0.766C0.056,-0.771 0.062,-0.775 0.068,-0.777C0.074,-0.78 0.081,-0.781 0.088,-0.781L0.277,-0.781C0.31,-0.781 0.341,-0.775 0.37,-0.762C0.399,-0.75 0.424,-0.732 0.446,-0.71C0.468,-0.689 0.485,-0.663 0.498,-0.634C0.51,-0.605 0.517,-0.574 0.517,-0.541C0.517,-0.52 0.514,-0.499 0.509,-0.478C0.503,-0.458 0.495,-0.439 0.485,-0.421C0.474,-0.403 0.461,-0.386 0.445,-0.37C0.429,-0.355 0.411,-0.341 0.39,-0.33L0.546,-0.08C0.551,-0.071 0.554,-0.062 0.554,-0.052C0.554,-0.044 0.553,-0.037 0.55,-0.031C0.548,-0.025 0.544,-0.02 0.539,-0.015C0.535,-0.01 0.529,-0.007 0.523,-0.004C0.516,-0.001 0.51,0 0.502,0C0.484,0 0.469,-0.008 0.458,-0.025L0.286,-0.301L0.14,-0.301L0.14,-0.052C0.14,-0.037 0.135,-0.025 0.125,-0.015C0.115,-0.005 0.103,0 0.088,0C0.074,0 0.062,-0.005 0.052,-0.015C0.042,-0.025 0.037,-0.037 0.037,-0.052Z" style="fill-rule:nonzero;" />
		</g>
		<g transform="matrix(64,0,0,64,154.136,141.42)">
			<path d="M0.14,-0.678L0.14,-0.367L0.238,-0.367C0.259,-0.367 0.279,-0.371 0.298,-0.379C0.317,-0.388 0.333,-0.399 0.347,-0.413C0.362,-0.427 0.373,-0.443 0.381,-0.462C0.389,-0.481 0.394,-0.501 0.394,-0.522C0.394,-0.544 0.389,-0.565 0.381,-0.583C0.373,-0.602 0.362,-0.619 0.347,-0.633C0.333,-0.647 0.317,-0.658 0.298,-0.666C0.279,-0.674 0.259,-0.678 0.238,-0.678L0.14,-0.678ZM0.036,-0.052L0.036,-0.729C0.036,-0.737 0.037,-0.743 0.04,-0.75C0.043,-0.756 0.046,-0.762 0.051,-0.766C0.056,-0.771 0.061,-0.775 0.067,-0.777C0.074,-0.78 0.08,-0.781 0.088,-0.781L0.238,-0.781C0.262,-0.781 0.284,-0.778 0.306,-0.772C0.328,-0.766 0.349,-0.757 0.368,-0.746C0.387,-0.734 0.405,-0.721 0.421,-0.705C0.437,-0.689 0.45,-0.672 0.462,-0.652C0.473,-0.633 0.482,-0.613 0.488,-0.591C0.494,-0.569 0.498,-0.546 0.498,-0.522C0.498,-0.451 0.472,-0.39 0.421,-0.339C0.37,-0.289 0.31,-0.264 0.238,-0.264L0.14,-0.264L0.14,-0.052C0.14,-0.037 0.135,-0.025 0.125,-0.015C0.114,-0.005 0.102,0 0.088,0C0.074,0 0.061,-0.005 0.051,-0.015C0.041,-0.025 0.036,-0.037 0.036,-0.052Z" style="fill-rule:nonzero;" />
		</g>
		<g transform="matrix(64,0,0,64,191.086,141.42)">
			<path d="M0.14,-0.678L0.14,-0.48L0.239,-0.48C0.252,-0.48 0.265,-0.483 0.277,-0.488C0.289,-0.493 0.299,-0.5 0.308,-0.509C0.317,-0.518 0.324,-0.529 0.33,-0.541C0.335,-0.553 0.337,-0.565 0.337,-0.579C0.337,-0.592 0.335,-0.605 0.33,-0.617C0.324,-0.629 0.317,-0.639 0.308,-0.648C0.299,-0.658 0.288,-0.665 0.277,-0.67C0.265,-0.675 0.252,-0.678 0.239,-0.678L0.14,-0.678ZM0.14,-0.376L0.14,-0.104L0.276,-0.104C0.295,-0.104 0.313,-0.107 0.33,-0.114C0.346,-0.121 0.361,-0.131 0.373,-0.144C0.385,-0.156 0.395,-0.17 0.402,-0.187C0.409,-0.204 0.413,-0.221 0.413,-0.24C0.413,-0.259 0.409,-0.276 0.402,-0.293C0.395,-0.31 0.385,-0.324 0.373,-0.336C0.36,-0.349 0.346,-0.359 0.329,-0.366C0.313,-0.373 0.295,-0.376 0.276,-0.376L0.14,-0.376ZM0.239,-0.781C0.266,-0.781 0.293,-0.776 0.317,-0.765C0.342,-0.755 0.363,-0.74 0.382,-0.722C0.4,-0.704 0.414,-0.682 0.425,-0.657C0.436,-0.633 0.441,-0.607 0.441,-0.579C0.441,-0.53 0.426,-0.486 0.395,-0.45C0.415,-0.438 0.432,-0.424 0.447,-0.409C0.462,-0.394 0.475,-0.377 0.485,-0.359C0.495,-0.341 0.503,-0.322 0.508,-0.302C0.514,-0.282 0.516,-0.261 0.516,-0.24C0.516,-0.207 0.51,-0.176 0.497,-0.147C0.484,-0.118 0.467,-0.093 0.446,-0.071C0.424,-0.049 0.399,-0.032 0.369,-0.019C0.34,-0.006 0.309,0 0.276,0L0.088,0C0.081,0 0.074,-0.001 0.068,-0.004C0.062,-0.007 0.056,-0.011 0.052,-0.015C0.047,-0.02 0.043,-0.025 0.04,-0.031C0.038,-0.038 0.036,-0.045 0.036,-0.052L0.036,-0.729C0.036,-0.737 0.038,-0.743 0.04,-0.75C0.043,-0.756 0.047,-0.762 0.052,-0.766C0.056,-0.771 0.062,-0.774 0.068,-0.777C0.074,-0.78 0.081,-0.781 0.088,-0.781L0.239,-0.781Z" style="fill-rule:nonzero;" />
		</g>
		<g transform="matrix(64,0,0,64,229.286,141.42)">
			<path d="M0.141,-0.729L0.141,-0.278C0.141,-0.254 0.145,-0.232 0.154,-0.21C0.163,-0.189 0.176,-0.171 0.191,-0.155C0.207,-0.139 0.225,-0.127 0.247,-0.117C0.268,-0.108 0.29,-0.104 0.314,-0.104C0.339,-0.104 0.361,-0.108 0.382,-0.117C0.403,-0.126 0.422,-0.139 0.438,-0.155C0.454,-0.171 0.466,-0.189 0.475,-0.21C0.484,-0.231 0.489,-0.254 0.489,-0.278L0.489,-0.729C0.489,-0.744 0.494,-0.756 0.504,-0.766C0.514,-0.776 0.526,-0.781 0.541,-0.781C0.555,-0.781 0.567,-0.776 0.577,-0.766C0.587,-0.756 0.592,-0.744 0.592,-0.729L0.592,-0.278C0.592,-0.252 0.589,-0.228 0.582,-0.205C0.576,-0.181 0.566,-0.159 0.554,-0.138C0.542,-0.118 0.528,-0.099 0.511,-0.082C0.494,-0.065 0.475,-0.051 0.454,-0.038C0.434,-0.026 0.412,-0.017 0.388,-0.01C0.364,-0.003 0.34,0 0.314,0C0.238,0 0.172,-0.027 0.119,-0.082C0.064,-0.136 0.037,-0.201 0.037,-0.278L0.037,-0.729C0.037,-0.744 0.042,-0.756 0.052,-0.766C0.062,-0.776 0.075,-0.781 0.089,-0.781C0.103,-0.781 0.115,-0.776 0.125,-0.766C0.136,-0.756 0.141,-0.744 0.141,-0.729Z" style="fill-rule:nonzero;" />
		</g>
		<g transform="matrix(64,0,0,64,272.486,141.42)">
			<path d="M0.24,-0.104C0.319,-0.104 0.386,-0.132 0.442,-0.188C0.471,-0.216 0.492,-0.247 0.506,-0.28C0.52,-0.313 0.527,-0.35 0.527,-0.391C0.527,-0.469 0.499,-0.537 0.442,-0.593C0.386,-0.65 0.319,-0.678 0.24,-0.678L0.141,-0.678L0.141,-0.104L0.24,-0.104ZM0.24,-0.781C0.347,-0.781 0.439,-0.743 0.516,-0.667C0.554,-0.628 0.583,-0.586 0.602,-0.541C0.621,-0.495 0.63,-0.445 0.63,-0.391C0.63,-0.283 0.592,-0.191 0.516,-0.114C0.439,-0.038 0.347,0 0.24,0L0.089,0C0.082,0 0.075,-0.001 0.069,-0.004C0.063,-0.007 0.057,-0.011 0.052,-0.015C0.048,-0.02 0.044,-0.025 0.041,-0.031C0.038,-0.038 0.037,-0.045 0.037,-0.052L0.037,-0.729C0.037,-0.737 0.038,-0.743 0.041,-0.75C0.044,-0.756 0.048,-0.762 0.052,-0.766C0.057,-0.771 0.063,-0.774 0.069,-0.777C0.075,-0.78 0.082,-0.781 0.089,-0.781L0.24,-0.781Z" style="fill-rule:nonzero;" />
		</g>
		<g transform="matrix(64,0,0,64,318.186,141.42)">
			<path d="M0.24,-0.104C0.319,-0.104 0.386,-0.132 0.442,-0.188C0.471,-0.216 0.492,-0.247 0.506,-0.28C0.52,-0.313 0.527,-0.35 0.527,-0.391C0.527,-0.469 0.499,-0.537 0.442,-0.593C0.386,-0.65 0.319,-0.678 0.24,-0.678L0.141,-0.678L0.141,-0.104L0.24,-0.104ZM0.24,-0.781C0.347,-0.781 0.439,-0.743 0.516,-0.667C0.554,-0.628 0.583,-0.586 0.602,-0.541C0.621,-0.495 0.63,-0.445 0.63,-0.391C0.63,-0.283 0.592,-0.191 0.516,-0.114C0.439,-0.038 0.347,0 0.24,0L0.089,0C0.082,0 0.075,-0.001 0.069,-0.004C0.063,-0.007 0.057,-0.011 0.052,-0.015C0.048,-0.02 0.044,-0.025 0.041,-0.031C0.038,-0.038 0.037,-0.045 0.037,-0.052L0.037,-0.729C0.037,-0.737 0.038,-0.743 0.041,-0.75C0.044,-0.756 0.048,-0.762 0.052,-0.766C0.057,-0.771 0.063,-0.774 0.069,-0.777C0.075,-0.78 0.082,-0.781 0.089,-0.781L0.24,-0.781Z" style="fill-rule:nonzero;" />
		</g>
		<g transform="matrix(64,0,0,64,363.886,141.42)">
			<path d="M0.175,-0.052C0.175,-0.037 0.17,-0.025 0.16,-0.015C0.15,-0.005 0.137,0 0.123,0C0.109,0 0.097,-0.005 0.086,-0.015C0.076,-0.025 0.071,-0.037 0.071,-0.052L0.071,-0.729C0.071,-0.744 0.076,-0.756 0.086,-0.766C0.097,-0.776 0.109,-0.781 0.123,-0.781C0.137,-0.781 0.15,-0.776 0.16,-0.766C0.17,-0.756 0.175,-0.744 0.175,-0.729L0.175,-0.052Z" style="fill-rule:nonzero;" />
		</g>
	</g>
	<g class="ManWithBackpack">
		<path class="Man" d="M101.662,77.712C102.398,77.375 102.858,76.922 103.227,76.174L103.553,75.512L103.579,63.325L103.606,51.138L104.798,51.138L104.798,75.351L105.012,75.923C105.641,77.604 107.691,78.473 109.288,77.736C110.073,77.374 110.527,76.935 110.901,76.174L111.227,75.512L111.254,60.504L111.28,45.495L110.661,45.202C108.684,44.266 107.297,42.875 106.533,41.062C106.346,40.62 106.194,40.191 106.194,40.109C106.194,40.026 106.033,39.816 105.836,39.643C104.714,38.655 104.583,36.984 105.542,35.899C105.815,35.59 105.884,35.396 106.037,34.494C106.252,33.231 106.748,31.466 107.233,30.241C107.429,29.745 107.589,29.308 107.589,29.271C107.589,29.233 105.425,29.215 102.78,29.232C97.424,29.264 97.814,29.217 96.476,29.997C92.638,32.236 90.737,39.299 91.136,49.833C91.214,51.88 91.276,52.618 91.396,52.905C91.968,54.274 93.704,54.658 94.766,53.65C95.384,53.063 95.364,53.248 95.378,47.849C95.388,43.819 95.422,42.678 95.561,41.62C95.872,39.257 96.214,37.745 96.75,36.371L97.074,35.54L97.124,55.624L97.174,75.707L97.439,76.205C98.271,77.767 100.109,78.423 101.662,77.712ZM111.277,42.974L111.277,42.483L110.754,42.31C110.466,42.214 109.944,42.008 109.593,41.851C109.243,41.694 108.941,41.58 108.923,41.598C108.841,41.68 110.091,42.79 110.623,43.109C110.949,43.304 111.229,43.464 111.246,43.464C111.263,43.464 111.277,43.243 111.277,42.974M114.229,42.011C114.527,41.924 114.959,41.71 115.189,41.535C116.684,40.394 117.038,38.491 116.214,36.028C115.118,32.752 112.553,29.896 110.219,29.354L109.677,29.228L109.443,29.693C109.034,30.505 108.486,32.079 108.132,33.462C107.943,34.199 107.789,34.861 107.789,34.933C107.789,35.008 107.945,35.091 108.146,35.123C108.342,35.155 108.914,35.446 109.416,35.769C109.919,36.093 110.543,36.48 110.804,36.631L111.277,36.905L111.277,36.653C111.277,36.515 111.122,36.14 110.932,35.821C110.591,35.247 110.334,34.292 110.558,34.43C110.991,34.698 112.542,37.647 112.35,37.839C112.217,37.973 110.588,37.146 109.085,36.182C108.251,35.647 108.228,35.64 107.483,35.64C106.829,35.64 106.673,35.676 106.321,35.909C105.752,36.286 105.354,37.107 105.418,37.773C105.499,38.618 105.75,38.957 106.847,39.702C108.062,40.528 110.384,41.698 111.327,41.96C112.199,42.202 113.492,42.225 114.229,42.011M105.586,27.563C106.394,27.372 107.397,26.847 108.06,26.267C108.757,25.657 109.53,24.475 109.806,23.597C110.122,22.592 110.115,20.97 109.791,20.041C109.159,18.231 107.689,16.772 105.949,16.227C105.101,15.961 103.445,15.921 102.655,16.148C100.052,16.893 98.32,19.166 98.32,21.836C98.32,23.51 98.855,24.787 100.054,25.973C100.906,26.815 101.692,27.283 102.721,27.56C103.424,27.749 104.791,27.75 105.585,27.563L105.586,27.563Z" style="fill-rule:nonzero;" />
		<g class="Packpack">
			<path d="M111.816,42.66C111.816,42.66 112.913,42.647 113.443,42.582C113.966,42.519 114.58,42.44 114.993,42.272C115.352,42.127 115.652,41.82 115.923,41.575C116.181,41.342 116.432,41.092 116.621,40.8C116.814,40.5 117.086,39.777 117.086,39.777L118.326,44.442C118.326,44.442 117.098,44.546 116.543,44.546C116.025,44.546 115.506,44.511 114.993,44.442C114.476,44.374 113.443,44.132 113.443,44.132L111.816,43.745L111.816,42.66Z" style="fill:#1faaff;" />
			<path d="M111.893,45.657C111.893,45.657 113.938,46.269 114.993,46.38C116.136,46.501 118.752,46.38 118.752,46.38C118.752,46.38 118.759,47.685 118.326,48.86C118.01,49.715 117.34,50.429 116.853,50.875C116.434,51.259 115.813,51.67 114.993,51.96C113.549,52.47 111.816,52.733 111.816,52.733L111.893,45.657Z" style="fill:#1faaff;" />
		</g>
	</g>
	<path class="Plane" d="M98.615,9.322C99.708,9.829 101.182,9.829 101.182,11.227C101.182,14.528 89.44,16.496 89.002,16.496L85.125,26.338C84.851,27.099 84.469,27.29 84.031,27.353L82.774,27.48L82.774,20.624L80.317,18.084C80.044,18.084 78.459,18.4 75.183,18.4C71.36,18.4 70.322,18.211 70.048,18.211L69.612,20.369C69.557,20.751 68.628,20.941 68.465,20.687L66.498,17.639C66.117,17.639 65.133,17.513 65.133,17.131C65.133,16.625 65.297,16.434 65.515,16.307L61.364,11.798C61.092,11.482 62.075,10.847 62.948,11.353L66.99,13.575L66.716,9.893L67.645,9.704C67.973,9.64 68.684,10.213 68.902,10.464L71.743,14.02L76.658,12.94L74.363,10.213L63.604,2.339L64.532,1.513C64.532,1.513 64.751,1.26 65.515,1.26L86.871,10.911L93.535,9.451C93.808,9.386 94.955,8.625 96.32,8.625C97.796,8.625 97.796,8.941 98.615,9.322" style="fill:#1faaff;fill-rule:nonzero;" />
</svg>
