<?xml version="1.0" encoding="UTF-8" standalone="no"?>
<!DOCTYPE svg PUBLIC "-//W3C//DTD SVG 1.1//EN" "http://www.w3.org/Graphics/SVG/1.1/DTD/svg11.dtd">
<svg width="100%" height="100%" viewBox="0 0 400 71" preserveAspectRatio="none" version="1.1" xmlns="http://www.w3.org/2000/svg" xmlns:xlink="http://www.w3.org/1999/xlink" xml:space="preserve" style="fill-rule:evenodd;clip-rule:evenodd;stroke-linejoin:round;stroke-miterlimit:2;">
	<defs>
		<filter id="f4" x="0" y="0" width="120%" height="120%">
			<feOffset result="offOut" in="SourceGraphic" dx="2" dy="2" />
			<feColorMatrix result="matrixOut" in="offOut" type="matrix" values="0.3 0 0 0 0 0 0.3 0 0 0 0 0 0.3 0 0 0 0 0 1 0" />
			<feGaussianBlur result="blurOut" in="matrixOut" stdDeviation="2" />
			<feBlend in="SourceGraphic" in2="blurOut" mode="normal" />
		</filter>
	</defs>
	<path class="Hotel" d="M144.49,43.806c-0.16,0.058 -0.332,0.089 -0.512,0.089c-2.305,0 -6.671,0 -8.975,0c-0.836,0 -1.513,-0.677 -1.513,-1.512c0,-6.328 0,-30.647 0,-36.975c0,-0.836 0.677,-1.513 1.513,-1.513c2.304,0 6.67,0 8.975,0c0.835,0 1.512,0.677 1.512,1.513l0,15.487l8.488,0c0.835,0 1.512,0.677 1.512,1.513c0,4.171 0,15.804 0,19.975c0,0.835 -0.677,1.512 -1.512,1.512c-2.305,0 -6.671,0 -8.975,0c-0.18,0 -0.353,-0.031 -0.513,-0.089Zm3.5,-5.911l-2,0l0,2l2,0l0,-2Zm5,0l-2,0l0,2l2,0l0,-2Zm-15,-5l-2,0l0,2l2,0l0,-2Zm10,0l-2,0l0,2l2,0l0,-2Zm-5,0l-2,0l0,2l2,0l0,-2Zm10,0l-2,0l0,2l2,0l0,-2Zm-15,-5l-2,0l0,2l2,0l0,-2Zm10,0l-2,0l0,2l2,0l0,-2Zm-5,0l-2,0l0,2l2,0l0,-2Zm10,0l-2,0l0,2l2,0l0,-2Zm-15,-5l-2,0l0,2l2,0l0,-2Zm10,0l-2,0l0,2l2,0l0,-2Zm-5,0l-2,0l0,2l2,0l0,-2Zm10,0l-2,0l0,2l2,0l0,-2Zm-15,-5l-2,0l0,2l2,0l0,-2Zm5,0l-2,0l0,2l2,0l0,-2Zm-5,-5l-2,0l0,2l2,0l0,-2Zm5,0l-2,0l0,2l2,0l0,-2Zm-5,-5l-2,0l0,2l2,0l0,-2Zm5,0l-2,0l0,2l2,0l0,-2Z" style="" />
	<g class="TripBuddiText" filter="url(#f4)">
		<!-- <g class="TripBuddiText"> -->
		<path d="M20.449,59.296c2.918,0 4.746,-1.934 4.746,-5.062l0,-35.297l10.195,0c2.391,0 4.078,-1.653 4.078,-3.973c0,-2.355 -1.687,-4.008 -4.078,-4.008l-29.847,0c-2.356,0 -4.079,1.688 -4.079,4.008c0,2.285 1.723,3.973 4.079,3.973l10.16,0l0,35.297c0,3.164 1.793,5.062 4.746,5.062Z" style="fill-rule:nonzero;" />
		<path d="M57.482,54.163l0,-13.078l8.719,0l7.067,13.922c1.582,3.094 2.918,4.148 5.414,4.148c2.707,0 4.711,-1.828 4.711,-4.394c0,-1.02 -0.317,-2.215 -0.844,-3.164l-6.961,-12.762c5.344,-2.25 8.473,-7.101 8.473,-13.184c0,-9.07 -6.364,-14.695 -16.629,-14.695l-12.27,0c-4.992,0 -7.172,2.25 -7.172,7.242l0,35.965c0,3.235 1.758,5.133 4.781,5.133c2.989,0 4.711,-1.898 4.711,-5.133Zm0,-20.179l0,-15.258l8.684,0c5.238,0 8.367,2.777 8.367,7.664c0,4.922 -3.094,7.594 -8.472,7.594l-8.579,0Z" style="fill-rule:nonzero;" />
		<path d="M141.708,59.296c3.024,0 4.782,-1.898 4.782,-5.133l0,-11.672l9.105,0c10.301,0 16.805,-5.871 16.805,-15.785c0,-9.492 -6.434,-15.75 -16.418,-15.75l-12.129,0c-4.957,0 -6.856,1.934 -6.856,6.926l0,36.281c0,3.235 1.723,5.133 4.711,5.133Zm4.782,-24.187l0,-16.559l8.296,0c5.204,0 8.157,3.023 8.157,8.297c0,6.117 -2.989,8.262 -10.371,8.262l-6.082,0Z" style="fill-rule:nonzero;" />
		<path d="M182.679,52.862c0,4.079 2.075,6.082 6.329,6.082l13.64,0c10.16,0 16.699,-5.308 16.699,-13.535c0,-6.539 -4.218,-11.109 -10.687,-11.707l0,-0.422c5.133,-1.195 8.226,-5.097 8.226,-10.511c0,-7.243 -5.484,-11.813 -14.203,-11.813l-13.675,0c-4.254,0 -6.329,2.039 -6.329,6.082l0,35.824Zm9.422,-21.937l0,-12.832l8.403,0c4.429,0 7.031,2.391 7.031,6.293c0,4.183 -2.813,6.539 -9.176,6.539l-6.258,0Zm0,20.883l0,-14.274l9,0c5.555,0 8.578,2.778 8.578,7.313c0,4.57 -3.058,6.961 -10.546,6.961l-7.032,0Z" style="fill-rule:nonzero;" />
		<path d="M268.721,42.421l0,-26.754c0,-3.164 -1.828,-5.062 -4.781,-5.062c-2.954,0 -4.746,1.898 -4.746,5.062l0,25.77c0,6.398 -3.762,10.371 -9.844,10.371c-6.153,0 -9.879,-3.903 -9.879,-10.371l0,-25.77c0,-3.164 -1.828,-5.062 -4.781,-5.062c-2.954,0 -4.746,1.898 -4.746,5.062l0,26.684c0,10.617 7.277,17.613 19.406,17.613c11.707,0 19.371,-6.926 19.371,-17.543Z" style="fill-rule:nonzero;" />
		<path d="M281.954,52.862c0,4.079 2.109,6.082 6.328,6.082l11.179,0c14.028,0 21.446,-8.296 21.446,-23.976c0,-15.715 -7.418,-24.012 -21.446,-24.012l-11.179,0c-4.219,0 -6.328,2.004 -6.328,6.082l0,35.824Zm9.492,-1.687l0,-32.484l6.82,0c8.789,0 12.938,5.203 12.938,16.277c0,11.004 -4.114,16.207 -12.938,16.207l-6.82,0Z" style="fill-rule:nonzero;" />
		<path d="M332.241,52.862c0,4.079 2.11,6.082 6.328,6.082l11.18,0c14.027,0 21.445,-8.296 21.445,-23.976c0,-15.715 -7.418,-24.012 -21.445,-24.012l-11.18,0c-4.218,0 -6.328,2.004 -6.328,6.082l0,35.824Zm9.492,-1.687l0,-32.484l6.821,0c8.789,0 12.937,5.203 12.937,16.277c0,11.004 -4.113,16.207 -12.937,16.207l-6.821,0Z" style="fill-rule:nonzero;" />
		<path d="M387.31,59.296c2.988,0 4.711,-1.898 4.711,-5.133l0,-38.426c0,-3.234 -1.758,-5.132 -4.746,-5.132c-3.024,0 -4.746,1.898 -4.746,5.132l0,38.426c0,3.235 1.757,5.133 4.781,5.133Z" style="fill-rule:nonzero;" />
	</g>
	<g class="ManWithBackpack">
		<g class="Man" filter="url(#f4)">
			<!-- <g class="Man"> -->
			<path class="Man1" d="M111.982,63.176c0.735,-0.337 1.196,-0.789 1.564,-1.537l0.326,-0.663l0.027,-12.186l0.027,-12.187l1.192,0l0,24.212l0.214,0.572c0.629,1.681 2.678,2.55 4.276,1.813c0.785,-0.362 1.238,-0.801 1.613,-1.561l0.326,-0.663l0.026,-15.008l0.027,-15.008l-0.619,-0.293c-1.977,-0.936 -3.364,-2.327 -4.129,-4.14c-0.186,-0.442 -0.339,-0.871 -0.339,-0.954c0,-0.083 -0.161,-0.292 -0.358,-0.466c-1.121,-0.988 -1.252,-2.659 -0.293,-3.744c0.273,-0.309 0.341,-0.503 0.495,-1.405c0.215,-1.263 0.711,-3.027 1.195,-4.253c0.196,-0.496 0.357,-0.932 0.357,-0.97c0,-0.038 -2.164,-0.055 -4.809,-0.039c-5.356,0.033 -4.966,-0.015 -6.304,0.766c-3.838,2.238 -5.739,9.302 -5.34,19.836c0.077,2.046 0.14,2.785 0.259,3.071c0.572,1.37 2.309,1.754 3.37,0.745c0.618,-0.587 0.599,-0.401 0.612,-5.8c0.011,-4.031 0.044,-5.171 0.183,-6.23c0.311,-2.363 0.654,-3.875 1.19,-5.248l0.324,-0.831l0.049,20.083l0.05,20.084l0.266,0.498c0.832,1.562 2.67,2.217 4.223,1.506Zm9.615,-34.738l0,-0.49l-0.524,-0.174c-0.287,-0.095 -0.81,-0.301 -1.16,-0.458c-0.351,-0.157 -0.652,-0.271 -0.67,-0.253c-0.082,0.082 1.167,1.192 1.7,1.511c0.326,0.195 0.606,0.354 0.623,0.354c0.017,0 0.031,-0.22 0.031,-0.49m2.952,-0.963c0.297,-0.086 0.729,-0.301 0.959,-0.476c1.495,-1.14 1.85,-3.044 1.026,-5.507c-1.096,-3.276 -3.662,-6.131 -5.996,-6.674l-0.541,-0.126l-0.235,0.465c-0.409,0.812 -0.956,2.386 -1.311,3.769c-0.188,0.737 -0.343,1.399 -0.343,1.472c0,0.074 0.156,0.157 0.357,0.19c0.197,0.032 0.768,0.322 1.271,0.646c0.503,0.323 1.127,0.711 1.387,0.861l0.474,0.274l0,-0.251c0,-0.139 -0.155,-0.513 -0.345,-0.832c-0.341,-0.575 -0.598,-1.529 -0.375,-1.391c0.434,0.268 1.985,3.217 1.793,3.409c-0.134,0.133 -1.763,-0.693 -3.265,-1.657c-0.834,-0.535 -0.857,-0.543 -1.602,-0.543c-0.654,0 -0.811,0.036 -1.162,0.269c-0.57,0.377 -0.967,1.198 -0.903,1.864c0.081,0.846 0.332,1.185 1.428,1.93c1.215,0.825 3.538,1.996 4.48,2.258c0.873,0.242 2.166,0.265 2.903,0.05m-8.644,-14.448c0.809,-0.19 1.811,-0.715 2.474,-1.296c0.697,-0.609 1.471,-1.792 1.747,-2.669c0.316,-1.005 0.309,-2.627 -0.015,-3.556c-0.632,-1.81 -2.102,-3.27 -3.843,-3.815c-0.848,-0.265 -2.503,-0.305 -3.293,-0.079c-2.603,0.746 -4.336,3.018 -4.336,5.688c0,1.674 0.536,2.952 1.735,4.137c0.852,0.842 1.638,1.31 2.667,1.587c0.702,0.189 2.069,0.191 2.864,0.003l0,0Z" style="fill-rule:nonzero;" />
		</g>
		<g class="Backpack">
			<path d="M122.135,28.124c0,0 1.098,-0.012 1.628,-0.077c0.523,-0.064 1.136,-0.142 1.55,-0.31c0.359,-0.146 0.658,-0.452 0.93,-0.698c0.257,-0.233 0.509,-0.483 0.697,-0.775c0.194,-0.299 0.465,-1.023 0.465,-1.023l1.24,4.666c0,0 -1.227,0.103 -1.782,0.103c-0.518,0 -1.037,-0.035 -1.55,-0.103c-0.517,-0.069 -1.55,-0.31 -1.55,-0.31l-1.628,-0.388l0,-1.085Z" style="" />
			<path d="M122.213,31.121c0,0 2.044,0.612 3.1,0.723c1.143,0.121 3.759,0 3.759,0c0,0 0.007,1.306 -0.427,2.48c-0.316,0.856 -0.985,1.569 -1.472,2.015c-0.419,0.384 -1.04,0.796 -1.86,1.085c-1.444,0.511 -3.178,0.774 -3.178,0.774l0.078,-7.077Z" style="" />
		</g>
	</g>
	<path class="Plane" d="M102.165,0.684c0.732,0.141 1.616,-0.079 1.825,0.759c0.493,1.98 -6.255,4.917 -6.518,4.982l-0.854,6.483c-0.05,0.498 -0.251,0.67 -0.504,0.772l-0.735,0.265l-1.025,-4.113l-1.854,-1.156c-0.164,0.041 -1.067,0.468 -3.032,0.958c-2.293,0.571 -2.944,0.613 -3.108,0.654l0.061,1.36c0.024,0.237 -0.505,0.49 -0.641,0.362l-1.635,-1.534c-0.229,0.057 -0.838,0.129 -0.895,-0.101c-0.076,-0.303 -0.006,-0.442 0.106,-0.551l-3.164,-2.084c-0.211,-0.149 0.284,-0.676 0.883,-0.503l2.757,0.728l-0.715,-2.168l0.529,-0.252c0.187,-0.087 0.699,0.15 0.868,0.268l2.236,1.708l2.786,-1.383l-1.784,-1.293l-7.631,-3.113l0.433,-0.634c0,0 0.093,-0.185 0.552,-0.3l14.253,2.596l3.778,-1.873c0.154,-0.079 0.729,-0.708 1.548,-0.912c0.885,-0.22 0.932,-0.031 1.48,0.075" style="fill-rule:nonzero;" />
</svg>
